P3
4 4
255
255 255 255 10 134 255 255 255 255 255 255 255 0 98 0 255 255 255  255 255 255 255 255 255 255 35 90 0 0 0 0 0 78 255 255 255 255 255 255 0 0 0 255 255 255 255 65 77