P3
8 8
255
1 125 22 1 125 22 1 125 22 1 125 22 1 125 22 1 125 22 1 125 22 1 125 22
1 125 22 2 242 42 2 242 42 2 242 42 2 242 42 2 242 42 2 242 42 1 125 22
1 125 22 0 0 0 0 0 0 2 242 42 2 242 42  0 0 0 0 0 0 1 125 22 
1 125 22 0 0 0 0 0 0 2 242 42 2 242 42  0 0 0 0 0 0 1 125 22
1 125 22 2 242 42 2 242 42 0 0 0 0 0 0 2 242 42 2 242 42 1 125 22
1 125 22 2 242 42 0 0 0 0 0 0 0 0 0 0 0 0 2 242 42 1 125 22
1 125 22 2 242 42 0 0 0 0 0 0 0 0 0 0 0 0 2 242 42 1 125 22
1 125 22 1 125 22 0 0 0 1 125 22 1 125 22 0 0 0 1 125 22 1 125 22