P3
# Created by GIMP version 2.10.32 PNM plug-in
3 3
255
96
64
96
96
64
64
32
64
32
64
64
96
96
64
96
64
64
96
32
64
32
96
64
64
96
64
96
