P3
3 3
255

128 128 128  128 0 64  0 128 0
64 0 128  128 128 128  64 0 128
0 128 0  128 0 64  128 128 128
