P3
# Created by GIMP version 2.10.32 PNM plug-in
3 3
255
255
255
255
54
54
54
182
182
182
18
18
18
0
0
0
18
18
18
182
182
182
54
54
54
255
255
255
