P3
# Created by GIMP version 2.10.32 PNM plug-in
3 3
255
255
255
238
100
88
69
196
174
136
48
42
33
0
0
0
48
42
33
196
174
136
100
88
69
255
255
238
