P3
# Created by GIMP version 2.10.32 PNM plug-in
3 3
255
255
159
255
255
64
160
0
159
0
160
64
255
255
255
255
160
64
255
0
159
0
255
64
160
255
159
255
